<?xml version="1.0" standalone="no"?>
<!DOCTYPE svg PUBLIC "-//W3C//DTD SVG 20010904//EN"
 "http://www.w3.org/TR/2001/REC-SVG-20010904/DTD/svg10.dtd">
<svg version="1.0" xmlns="http://www.w3.org/2000/svg"
 width="640.000000pt" height="1280.000000pt" viewBox="0 0 640.000000 1280.000000"
 preserveAspectRatio="xMidYMid meet">
<metadata>
Created by potrace 1.15, written by Peter Selinger 2001-2017
</metadata>
<g transform="translate(0.000000,1280.000000) scale(0.100000,-0.100000)"
fill="#000000" stroke="none">
<path d="M5146 12777 c-28 -112 -136 -1511 -136 -1764 0 -114 -3 -133 -32
-217 -37 -109 -42 -185 -13 -233 32 -54 55 -58 309 -55 126 1 231 4 233 5 5 5
23 106 34 187 5 41 14 221 19 400 11 353 19 499 51 952 l22 297 -91 108 c-111
133 -228 248 -306 302 -68 47 -82 50 -90 18z"/>
<path d="M4505 10771 c151 -73 309 -160 387 -212 33 -22 62 -38 64 -36 2 2 -9
22 -25 44 -33 46 -95 98 -162 137 -48 27 -335 126 -366 126 -10 0 36 -26 102
-59z"/>
<path d="M4515 10560 c-16 -6 -70 -30 -120 -53 l-90 -44 135 -7 c129 -7 371 5
465 23 l40 8 -30 12 c-110 46 -338 81 -400 61z"/>
<path d="M4870 10459 c-61 -12 -98 -27 -139 -57 -51 -38 -61 -74 -61 -214 l1
-123 50 55 c89 97 239 312 239 342 0 10 -30 9 -90 -3z"/>
<path d="M4961 10429 c-19 -63 -15 -181 7 -231 18 -40 108 -166 167 -233 l26
-30 -7 65 c-8 83 -45 229 -78 310 -24 60 -85 160 -97 160 -3 0 -11 -18 -18
-41z"/>
<path d="M5110 10363 c0 -21 16 -101 36 -178 35 -138 56 -315 38 -315 -14 0
-95 88 -138 148 -20 30 -60 96 -87 148 -28 52 -55 96 -60 100 -13 8 -16 -6
-28 -176 -22 -292 -150 -1465 -191 -1745 -17 -122 -44 -217 -114 -412 -28 -77
-33 -142 -15 -160 8 -8 35 -10 78 -6 36 3 133 -2 215 -11 239 -26 327 -20 340
21 25 78 178 1078 241 1563 50 392 85 798 85 991 l0 36 -142 17 c-79 9 -169
16 -200 16 l-58 0 0 -37z"/>
<path d="M3005 9593 c-4 -10 -11 -310 -16 -668 -10 -838 -10 -841 -74 -991
-19 -45 -35 -87 -35 -94 0 -14 83 -11 305 10 55 5 153 9 218 10 l119 0 -6 543
c-4 298 -9 625 -12 726 l-6 183 -132 86 c-157 103 -336 212 -346 212 -4 0 -11
-8 -15 -17z"/>
<path d="M3033 7740 c-58 -12 -80 -25 -100 -63 -16 -28 -18 -58 -16 -227 1
-196 29 -629 59 -911 21 -200 42 -283 94 -360 63 -91 83 -144 90 -237 5 -55
12 -88 23 -99 33 -33 283 -25 361 12 55 26 61 54 60 280 -2 190 -11 362 -69
1229 -14 203 -25 372 -25 377 0 11 -420 10 -477 -1z"/>
<path d="M4537 7708 c-20 -15 -61 -208 -177 -843 -88 -483 -145 -832 -205
-1256 -49 -342 -52 -411 -20 -443 12 -11 89 -29 220 -50 46 -7 285 14 320 28
30 13 32 16 53 137 27 153 73 436 152 944 36 228 90 525 131 715 115 534 127
592 130 664 4 68 4 69 -23 77 -26 7 -206 21 -453 34 -84 5 -114 3 -128 -7z"/>
<path d="M2902 6188 c47 -51 112 -128 146 -171 56 -71 62 -76 62 -50 -1 74
-80 176 -205 262 -40 28 -76 51 -80 51 -4 0 31 -42 77 -92z"/>
<path d="M2390 6017 l-85 -10 45 -14 c138 -41 604 -130 632 -121 19 7 -146 92
-240 124 -107 37 -181 42 -352 21z"/>
<path d="M2990 5998 c0 -33 30 -86 65 -112 20 -16 38 -26 41 -24 2 2 -17 33
-42 69 -59 82 -64 87 -64 67z"/>
<path d="M2708 5795 c-94 -26 -140 -57 -245 -164 -56 -58 -100 -107 -98 -109
15 -15 635 258 635 280 0 13 -240 8 -292 -7z"/>
<path d="M3023 5731 c-78 -62 -152 -147 -179 -205 -23 -50 -24 -64 -22 -177
l3 -123 39 54 c62 85 142 225 175 305 30 72 55 185 40 185 -4 0 -29 -17 -56
-39z"/>
<path d="M3118 5668 c-9 -36 -38 -111 -64 -168 l-48 -102 23 -302 c36 -480 90
-1147 97 -1193 11 -76 18 -78 248 -78 l201 0 83 48 c62 37 82 54 82 70 0 18
-32 460 -109 1515 -10 139 -22 256 -25 260 -4 4 -112 8 -239 10 l-232 4 -17
-64z"/>
<path d="M5120 5239 c-41 -11 -79 -25 -85 -31 -7 -8 -5 -9 8 -4 10 3 125 6
255 6 138 0 231 4 222 9 -25 15 -199 41 -264 40 -34 0 -95 -9 -136 -20z"/>
<path d="M4990 5041 c0 -10 136 -134 240 -217 152 -122 280 -214 280 -202 0 7
-23 59 -51 115 -58 117 -99 159 -207 216 -102 53 -262 107 -262 88z"/>
<path d="M4115 5030 c-12 -4 -26 -15 -33 -23 -17 -20 -141 -931 -129 -943 3
-3 25 0 48 7 31 10 118 13 302 12 141 -1 257 2 258 5 0 4 15 124 33 267 18
143 31 262 30 264 -2 2 -27 -12 -56 -32 -118 -77 -412 -226 -425 -213 -7 6 32
73 110 191 83 125 136 192 249 320 71 79 94 111 84 117 -47 26 -421 49 -471
28z"/>
<path d="M4725 5008 c-82 -64 -219 -206 -294 -303 -83 -107 -141 -190 -141
-200 0 -10 143 69 232 128 107 70 186 182 239 336 29 84 25 88 -36 39z"/>
<path d="M4887 5001 c-9 -43 -9 -509 -1 -590 4 -33 10 -61 14 -61 4 0 38 60
75 134 60 118 68 143 73 205 3 43 0 89 -8 117 -13 47 -65 133 -117 193 l-30
35 -6 -33z"/>
<path d="M4050 4025 c-36 -7 -76 -18 -90 -24 -21 -10 -16 -11 30 -7 95 8 335
38 339 42 10 10 -220 1 -279 -11z"/>
<path d="M4320 3978 c-138 -14 -371 -47 -381 -53 -23 -15 -3 -24 84 -39 210
-38 299 -77 403 -180 l73 -71 6 35 c17 103 41 311 37 315 -8 7 -123 4 -222 -7z"/>
<path d="M3893 3836 c53 -40 543 -253 555 -241 10 9 -120 135 -163 157 -66 34
-144 57 -263 78 -139 24 -154 25 -129 6z"/>
<path d="M3598 3766 c-36 -30 -97 -93 -136 -140 -75 -91 -187 -254 -180 -261
7 -7 169 92 232 142 62 48 105 109 135 188 25 65 36 125 24 125 -5 0 -39 -24
-75 -54z"/>
<path d="M3785 3768 c12 -94 45 -250 77 -361 26 -88 34 -106 44 -95 16 16 80
181 89 229 9 50 -10 113 -48 156 -34 39 -143 123 -159 123 -6 0 -7 -20 -3 -52z"/>
<path d="M3340 3748 c-80 -4 -158 -11 -175 -16 l-30 -9 2 -299 c1 -164 11
-550 22 -857 l21 -558 33 -32 c18 -18 40 -43 49 -57 l15 -25 217 2 c190 2 222
5 261 22 32 14 43 24 40 38 -4 19 -16 338 -40 1103 -17 522 -24 650 -36 650
-5 0 -9 -5 -9 -11 0 -6 -14 -39 -32 -74 -56 -114 -176 -211 -400 -325 -64 -33
-119 -60 -122 -60 -9 0 27 69 87 170 48 81 148 220 218 303 17 21 30 39 28 40
-2 1 -69 -1 -149 -5z"/>
<path d="M4035 3659 c32 -90 10 -187 -96 -416 l-41 -88 -23 45 c-27 51 -31 47
-44 -49 -8 -63 -7 -66 30 -135 66 -125 87 -270 54 -380 -8 -27 -14 -51 -12
-53 10 -9 310 -25 359 -19 91 12 103 27 122 153 22 148 96 745 96 776 0 22 -8
29 -57 47 -32 12 -133 53 -225 91 -92 38 -169 69 -172 69 -3 0 1 -19 9 -41z"/>
<path d="M2348 3509 c-3 -13 -28 -125 -56 -249 -62 -275 -76 -349 -70 -356 14
-14 119 198 143 289 15 56 17 88 11 189 -7 123 -18 173 -28 127z"/>
<path d="M1810 3025 c24 -28 98 -106 164 -175 105 -111 116 -119 91 -75 -43
76 -89 129 -178 203 -117 97 -128 103 -77 47z"/>
<path d="M3812 2914 c4 -32 17 -90 30 -129 l23 -70 3 54 c2 34 -5 79 -18 122
-27 91 -45 102 -38 23z"/>
<path d="M3070 2900 c19 -13 30 -13 30 0 0 6 -10 10 -22 10 -19 0 -20 -2 -8
-10z"/>
<path d="M3821 2644 c-1 -17 6 -37 14 -44 15 -13 15 -9 -8 60 -3 8 -6 1 -6
-16z"/>
<path d="M1335 2574 c-54 -9 -234 -55 -272 -69 l-38 -15 40 5 c115 14 586 52
695 56 l35 1 -40 9 c-45 10 -374 20 -420 13z"/>
<path d="M2313 2473 c-22 -15 512 -84 635 -82 l57 1 -70 19 c-147 40 -290 61
-450 65 -88 3 -166 1 -172 -3z"/>
<path d="M3862 2443 c-21 -42 -25 -90 -23 -309 3 -254 6 -242 -64 -265 l-40
-13 38 -6 c20 -4 41 -10 45 -14 7 -8 13 -202 31 -1086 6 -289 14 -564 17 -612
6 -85 8 -88 31 -88 28 0 88 24 97 38 14 23 46 250 196 1368 33 248 73 529 90
625 38 223 50 340 36 345 -10 3 -404 34 -434 34 -6 0 -15 -8 -20 -17z"/>
<path d="M1765 2393 c-11 -3 -101 -34 -200 -70 -208 -75 -434 -182 -526 -249
-96 -71 -271 -216 -266 -221 10 -10 693 340 902 463 129 76 147 91 90 77z"/>
<path d="M2120 2371 c8 -5 146 -66 306 -135 360 -155 608 -269 703 -324 l72
-42 -3 28 c-3 23 -15 33 -88 69 -225 111 -532 242 -833 354 -151 57 -190 69
-157 50z"/>
<path d="M1904 2341 c-111 -40 -180 -94 -219 -171 -35 -68 -89 -237 -125 -390
-17 -74 -36 -147 -40 -162 -5 -16 -5 -28 -1 -28 13 0 215 212 250 263 65 95
189 370 216 480 9 33 -6 35 -81 8z"/>
<path d="M3081 2296 c-17 -18 -20 -26 -10 -26 24 0 41 16 37 35 -2 14 -7 13
-27 -9z"/>
<path d="M3174 1188 c9 -759 21 -1135 36 -1153 23 -28 111 -37 335 -33 162 2
226 7 244 17 l24 13 -6 252 c-3 138 -11 528 -17 866 -7 338 -13 621 -16 628
-3 10 -68 12 -305 12 l-302 -1 7 -601z"/>
</g>
</svg>
