<?xml version="1.0" standalone="no"?>
<!DOCTYPE svg PUBLIC "-//W3C//DTD SVG 20010904//EN"
 "http://www.w3.org/TR/2001/REC-SVG-20010904/DTD/svg10.dtd">
<svg version="1.0" xmlns="http://www.w3.org/2000/svg"
 width="1200.000000pt" height="1200.000000pt" viewBox="0 0 1200.000000 1200.000000"
 preserveAspectRatio="xMidYMid meet">

<g transform="translate(0.000000,1200.000000) scale(0.100000,-0.100000)"
fill="#000000" stroke="none">
<path d="M5600 10510 c-216 -39 -350 -102 -432 -204 -191 -238 -160 -557 88
-886 91 -121 390 -426 489 -498 85 -63 169 -108 295 -157 52 -20 99 -41 103
-45 5 -4 -7 -57 -25 -117 l-34 -109 35 -27 c20 -15 40 -28 46 -30 5 -1 28 57
51 128 l41 130 64 -3 c180 -8 436 80 655 226 198 133 422 385 593 668 65 108
67 114 50 114 -18 0 -177 77 -207 100 -15 12 -103 96 -196 186 -182 178 -232
217 -373 288 -114 56 -170 79 -298 116 -55 16 -147 44 -205 63 -195 65 -228
71 -440 74 -157 2 -216 -1 -300 -17z"/>
<path d="M3678 10111 c-83 -13 -102 -64 -96 -261 4 -123 7 -144 40 -237 45
-130 120 -252 224 -362 94 -99 181 -155 266 -172 l57 -11 39 -92 c42 -95 86
-224 117 -339 17 -63 17 -68 1 -85 -9 -9 -38 -53 -64 -98 -54 -91 -81 -119
-167 -171 -58 -35 -267 -123 -292 -123 -17 0 -83 -59 -83 -75 0 -7 -15 -45
-34 -86 -98 -211 -64 -421 103 -646 104 -140 256 -262 442 -355 124 -61 209
-83 392 -102 79 -9 159 -22 178 -30 19 -8 68 -18 109 -22 119 -11 113 -4 133
-144 40 -279 100 -570 198 -969 l70 -283 -15 -77 c-38 -187 -61 -576 -52 -846
12 -324 43 -568 111 -875 33 -146 186 -726 225 -852 17 -56 17 -60 -6 -215
-42 -288 -111 -571 -218 -899 -36 -111 -66 -204 -66 -208 0 -3 22 -6 49 -6
l50 0 60 183 c79 242 135 447 174 644 17 90 35 163 38 163 10 0 66 -272 88
-425 23 -161 41 -374 41 -487 l0 -78 52 0 51 0 -6 163 c-12 304 -49 548 -133
887 l-56 225 16 140 c51 439 42 984 -24 1419 -40 258 -106 555 -190 847 -22
75 -51 177 -64 228 l-25 91 43 128 c75 223 147 365 260 515 56 74 142 167 156
167 4 0 10 -62 14 -137 13 -270 37 -565 106 -1303 76 -818 95 -1078 110 -1520
14 -415 -2 -855 -46 -1210 -25 -206 -83 -534 -110 -622 -5 -16 2 -18 48 -18
l54 0 32 163 c84 421 112 722 119 1247 8 606 -4 823 -112 2015 -73 805 -92
1055 -102 1312 l-6 179 84 62 c87 63 263 161 273 151 3 -3 -8 -52 -24 -110
-60 -208 -115 -525 -140 -814 -18 -198 -24 -709 -11 -980 15 -329 30 -522 101
-1305 32 -360 65 -734 72 -830 14 -190 18 -937 5 -1033 l-7 -57 49 0 50 0 8
58 c4 31 8 239 7 462 -1 458 -4 512 -94 1500 -80 882 -90 1033 -97 1470 -9
599 26 995 123 1385 38 153 84 298 101 316 29 33 348 122 598 168 198 36 174
38 242 -21 70 -61 136 -90 254 -114 112 -23 339 -15 454 15 231 61 449 225
545 410 19 36 21 45 10 71 -16 38 -68 80 -156 124 -266 134 -571 127 -870 -19
-138 -67 -211 -135 -273 -254 -23 -44 -49 -82 -59 -85 -10 -3 -87 -17 -172
-31 -85 -14 -235 -46 -333 -72 -98 -25 -180 -43 -184 -39 -10 10 131 283 208
401 197 304 468 570 763 749 l74 44 64 -31 c61 -30 67 -31 198 -32 154 0 201
11 340 77 71 34 100 56 175 132 151 152 285 381 285 486 0 87 -313 115 -566
49 -286 -73 -538 -313 -552 -525 l-4 -71 -86 -54 c-147 -93 -282 -199 -411
-324 -258 -250 -435 -511 -583 -860 l-43 -100 -120 -60 c-66 -34 -157 -84
-202 -113 -46 -29 -87 -52 -93 -52 -6 0 -10 66 -10 181 l0 180 -22 -7 c-13 -3
-35 -13 -50 -21 l-28 -14 0 -205 0 -206 -68 -67 c-175 -171 -312 -384 -407
-628 -16 -40 -32 -73 -37 -73 -4 0 -8 4 -8 8 0 4 -20 93 -45 198 -67 282 -185
891 -185 955 0 11 21 24 63 40 34 13 76 31 92 40 17 10 82 32 145 50 237 66
486 181 608 279 148 119 257 323 297 555 20 122 19 140 -13 188 -15 23 -37 62
-47 87 -44 103 -100 172 -215 263 -41 33 -93 82 -116 111 -23 28 -61 69 -85
92 -24 23 -61 60 -81 82 -28 30 -48 43 -75 47 -21 3 -87 14 -148 25 -167 30
-275 40 -440 40 -236 0 -399 -30 -608 -109 -59 -23 -112 -41 -118 -41 -5 0 4
17 20 38 l30 37 -13 75 c-14 80 -39 176 -88 334 l-31 100 16 85 c14 70 15 100
6 161 -34 240 -190 504 -374 630 -84 58 -183 84 -267 71z m1747 -5055 c121
-432 187 -799 216 -1211 13 -183 7 -752 -8 -793 -8 -21 -11 -18 -26 30 -9 29
-43 157 -77 283 -159 603 -205 989 -181 1516 13 268 18 326 32 312 4 -4 24
-66 44 -137z"/>
<path d="M4431 6748 l-44 -20 6 -452 c14 -1035 111 -2075 322 -3446 81 -523
224 -1342 237 -1356 3 -3 26 -4 50 -2 l44 3 -43 235 c-232 1269 -394 2479
-468 3490 -31 430 -36 554 -42 1058 -3 281 -9 512 -12 511 -3 0 -26 -10 -50
-21z"/>
</g>
</svg>
